#!OML:ASF F:\VICON\USERDATA\INSTALL\rory3\rory3.ASF
:FULLY-SPECIFIED
:DEGREES
1911
root -0.510926 16.0574 -0.0610408 1.62456 8.24225 -0.813634
lowerback 1.30488 -1.94076 0.491536
upperback -10.9015 -2.50432 0.634852
thorax -12.4539 -1.20787 0.712978
lowerneck -1.49033 -11.3773 -16.4551
upperneck 16.5729 -15.775 7.44258
head 7.24458 -8.20525 3.72247
rclavicle 8.69683e-015 1.41137e-014
rhumerus 73.3013 -31.2442 -26.6625
rradius 73.5765
rwrist -51.2137
rhand -14.8856 -0.861208
rfingers 7.12502
rthumb 11.2751 -30.5382
lclavicle 8.69683e-015 1.41137e-014
lhumerus 74.5002 24.7015 30.6326
lradius 79.599
lwrist 75.1496
lhand -9.12651 18.9882
lfingers 7.12502
lthumb 16.8247 48.2793
rfemur -3.95124 9.72626 21.9059
rtibia 20.8759
rfoot -14.8882 -22.2512
rtoes -3.89218
lfemur -5.10196 -16.5249 -14.2513
ltibia 16.2162
lfoot -10.5975 16.0291
ltoes -11.1073
1912
root -0.509072 16.0677 -0.0857872 1.83704 8.17715 -0.709575
lowerback 1.5111 -1.94039 0.396511
upperback -10.8299 -2.51397 0.613609
thorax -12.4939 -1.20398 0.750232
lowerneck -1.53819 -11.3527 -16.3888
upperneck 16.2942 -15.7135 7.43725
head 7.14777 -8.16574 3.72099
rclavicle -1.43125e-014 1.49089e-014
rhumerus 73.0896 -31.7711 -27.375
rradius 74.858
rwrist -51.1044
rhand -14.1227 -0.950051
rfingers 7.12502
rthumb 12.0108 -30.5854
lclavicle -1.43125e-014 1.49089e-014
lhumerus 73.869 25.2911 30.8997
lradius 80.6391
lwrist 74.6471
lhand -8.73421 18.4181
lfingers 7.12502
lthumb 17.2023 47.6767
rfemur -4.09642 9.70879 21.6955
rtibia 20.5791
rfoot -14.7546 -22.0766
rtoes -3.67142
lfemur -5.27854 -16.5929 -14.3102
ltibia 15.9817
lfoot -10.469 16.2125
ltoes -11.2511
1913
root -0.510981 16.0786 -0.1109 2.03907 8.09655 -0.665687
lowerback 1.69933 -1.95068 0.290017
upperback -10.7326 -2.53603 0.627229
thorax -12.4901 -1.2031 0.831676
lowerneck -1.47233 -11.3193 -16.2907
upperneck 15.824 -15.6445 7.41254
head 6.96447 -8.12256 3.72024
rclavicle 6.4605e-016 -2.06736e-014
rhumerus 72.9585 -32.2595 -28.2563
rradius 76.1302
rwrist -50.8599
rhand -13.4253 -1.07239
rfingers 7.12502
rthumb 12.6832 -30.6673
lclavicle 6.4605e-016 -2.06736e-014
lhumerus 73.1943 25.8565 31.2144
lradius 81.8116
lwrist 74.0277
lhand -8.23683 18.1302
lfingers 7.12502
lthumb 17.681 47.3463
rfemur -4.27754 9.79841 21.5742
rtibia 20.3233
rfoot -14.645 -22.0014
rtoes -3.90691
lfemur -5.40919 -16.5747 -14.2744
ltibia 15.6489
lfoot -10.2758 16.2851
ltoes -10.7947
1914
root -0.510849 16.089 -0.136371 2.21565 8.01237 -0.700329
lowerback 1.87404 -1.93286 0.293586
upperback -10.6118 -2.51122 0.63714
thorax -12.4562 -1.19122 0.840897
lowerneck -1.44554 -11.3167 -16.2661
upperneck 15.3979 -15.6287 7.4946
head 6.82416 -8.10192 3.75401
rclavicle -1.799e-014 -2.28602e-015
rhumerus 72.7062 -32.772 -29.0973
rradius 77.4578
rwrist -50.6731
rhand -13.4414 -0.300557
rfingers 7.12502
rthumb 12.6677 -29.8964
lclavicle -1.799e-014 -2.28602e-015
lhumerus 72.5316 26.3513 31.5587
lradius 83.0136
lwrist 73.2803
lhand -7.88446 17.7884
lfingers 7.12502
lthumb 18.02 46.9737
rfemur -4.45816 9.79945 21.5224
rtibia 20.0765
rfoot -14.5711 -21.8261
rtoes -3.76275
lfemur -5.53747 -16.5412 -14.1709
ltibia 15.3304
lfoot -9.99661 16.3639
ltoes -10.5628
1915
root -0.508347 16.0981 -0.161812 2.32554 7.94246 -0.741996
lowerback 2.10825 -1.91438 0.323564
upperback -10.4479 -2.48143 0.663228
thorax -12.4093 -1.17854 0.853372
lowerneck -1.61659 -11.3154 -16.4252
upperneck 15.197 -15.6017 7.68208
head 6.81323 -8.07661 3.83173
rclavicle -3.90115e-014 -2.0276e-014
rhumerus 72.3968 -33.305 -29.8299
rradius 78.9224
rwrist -50.6327
rhand -13.6644 0.375244
rfingers 7.12502
rthumb 12.4527 -29.2338
lclavicle -3.90115e-014 -2.0276e-014
lhumerus 71.7696 26.8496 31.8123
lradius 84.2437
lwrist 72.4463
lhand -7.68805 17.298
lfingers 7.12502
lthumb 18.209 46.4657
rfemur -4.55502 9.78049 21.485
rtibia 19.8312
rfoot -14.4283 -21.7055
rtoes -3.44424
lfemur -5.61284 -16.5303 -14.0925
ltibia 15.0427
lfoot -9.69539 16.5249
ltoes -11.0669
1916
root -0.507588 16.1049 -0.188577 2.40875 7.83742 -0.888343
lowerback 2.37498 -1.88199 0.472802
upperback -10.2773 -2.42036 0.704948
thorax -12.3801 -1.16135 0.813452
lowerneck -1.87968 -11.3176 -16.5884
upperneck 15.1414 -15.5622 7.80782
head 6.85892 -8.04844 3.88383
rclavicle -2.79292e-014 -9.44227e-015
rhumerus 72.0281 -33.8783 -30.5157
rradius 80.4575
rwrist -50.6143
rhand -13.6979 0.45105
rfingers 7.12502
rthumb 12.4204 -29.1599
lclavicle -2.79292e-014 -9.44227e-015
lhumerus 70.9592 27.2981 32.0242
lradius 85.5066
lwrist 71.7766
lhand -7.63919 16.6933
lfingers 7.12502
lthumb 18.256 45.8566
rfemur -4.61799 9.85975 21.59
rtibia 19.5689
rfoot -14.2922 -21.6085
rtoes -2.63926
lfemur -5.65533 -16.4938 -13.8849
ltibia 14.7518
lfoot -9.46476 16.5905
ltoes -11.4181
1917
root -0.509356 16.1126 -0.213924 2.49942 7.71308 -0.954286
lowerback 2.63896 -1.86424 0.500272
upperback -10.1574 -2.39191 0.72212
thorax -12.404 -1.14894 0.820068
lowerneck -1.77104 -11.2954 -16.6348
upperneck 14.7981 -15.5283 7.8586
head 6.7333 -8.02881 3.92301
rclavicle 8.00108e-015 1.88845e-015
rhumerus 71.4977 -34.353 -31.2102
rradius 82.0835
rwrist -50.5927
rhand -13.544 0.562278
rfingers 7.12502
rthumb 12.5688 -29.0397
lclavicle 8.00108e-015 1.88845e-015
lhumerus 70.0121 27.774 32.1249
lradius 86.8699
lwrist 71.5946
lhand -7.65355 16.4305
lfingers 7.12502
lthumb 18.2422 45.5951
rfemur -4.6593 9.98906 21.6207
rtibia 19.293
rfoot -14.2926 -21.4595
rtoes -1.11884
lfemur -5.69322 -16.3825 -13.7514
ltibia 14.457
lfoot -9.31767 16.575
ltoes -11.0205
1918
root -0.50906 16.1232 -0.238243 2.56674 7.64513 -1.03942
lowerback 2.94673 -1.85874 0.585632
upperback -10.0641 -2.37604 0.71836
thorax -12.4901 -1.14898 0.77595
lowerneck -1.56923 -11.2688 -16.6582
upperneck 14.4359 -15.5075 7.92314
head 6.58688 -8.01617 3.96787
rclavicle 9.69075e-015 -9.44227e-015
rhumerus 70.8201 -34.7936 -31.8207
rradius 83.8138
rwrist -50.599
rhand -13.6254 0.520686
rfingers 7.12502
rthumb 12.4903 -29.086
lclavicle 9.69075e-015 -9.44227e-015
lhumerus 69.0909 28.2402 32.2766
lradius 88.2525
lwrist 71.7895
lhand -7.65472 16.4774
lfingers 7.12502
lthumb 18.241 45.6421
rfemur -4.71798 9.98719 21.6471
rtibia 19.0654
rfoot -14.1843 -21.2765
rtoes 0.413232
lfemur -5.67747 -16.3494 -13.6205
ltibia 14.0975
lfoot -9.17515 16.6454
ltoes -10.6282
1919
root -0.506361 16.132 -0.264664 2.59991 7.54699 -1.12172
lowerback 3.26613 -1.82805 0.672611
upperback -9.88523 -2.32604 0.710651
thorax -12.4835 -1.13363 0.719555
lowerneck -1.66182 -11.2989 -16.6651
upperneck 14.2532 -15.5256 7.97393
head 6.55084 -8.01565 3.9801
rclavicle 7.35503e-015 3.97569e-016
rhumerus 70.1401 -35.3469 -32.3733
rradius 85.5624
rwrist -50.6353
rhand -13.8402 0.567223
rfingers 7.12502
rthumb 12.2832 -29.052
lclavicle 7.35503e-015 3.97569e-016
lhumerus 68.2458 28.7629 32.6067
lradius 89.6919
lwrist 72.0122
lhand -7.65826 16.4218
lfingers 7.12502
lthumb 18.2376 45.5868
rfemur -4.78962 9.95466 21.6604
rtibia 18.8711
rfoot -13.9671 -21.1382
rtoes 1.53736
lfemur -5.56974 -16.3478 -13.5169
ltibia 13.6446
lfoot -8.89006 16.8628
ltoes -10.9184
1920
root -0.505126 16.1404 -0.291458 2.66623 7.38807 -0.998447
lowerback 3.4778 -1.80317 0.498624
upperback -9.6295 -2.31554 0.65589
thorax -12.3106 -1.11632 0.756179
lowerneck -1.79773 -11.3477 -16.566
upperneck 14.0036 -15.5602 7.99863
head 6.49186 -8.01697 3.96596
rclavicle -2.20651e-014 1.98785e-016
rhumerus 69.5082 -35.9468 -32.9845
rradius 87.2475
rwrist -50.718
rhand -14.0718 0.790327
rfingers 7.12502
rthumb 12.0599 -28.8422
lclavicle -2.20651e-014 1.98785e-016
lhumerus 67.2077 29.3194 32.8403
lradius 91.3517
lwrist 72.1541
lhand -7.6037 16.2454
lfingers 7.12502
lthumb 18.2901 45.4055
rfemur -4.85793 9.96121 21.4468
rtibia 18.6346
rfoot -13.7262 -20.962
rtoes 2.12344
lfemur -5.48063 -16.3049 -13.6353
ltibia 13.2333
lfoot -8.68884 17.0574
ltoes -11.3644
1921
root -0.504512 16.147 -0.316677 2.65694 7.22525 -0.874495
lowerback 3.75426 -1.77474 0.286553
upperback -9.41374 -2.30298 0.608896
thorax -12.2233 -1.09347 0.826006
lowerneck -1.68769 -11.3448 -16.5957
upperneck 13.704 -15.5703 8.12984
head 6.39148 -8.01411 4.02242
rclavicle -8.69683e-015 2.38542e-015
rhumerus 68.6715 -36.437 -33.4652
rradius 89.0279
rwrist -50.8954
rhand -14.3375 0.856627
rfingers 7.12502
rthumb 11.8037 -28.7907
lclavicle -8.69683e-015 2.38542e-015
lhumerus 65.9809 29.5703 33.0877
lradius 93.0656
lwrist 72.1413
lhand -7.35535 16.1621
lfingers 7.12502
lthumb 18.529 45.2997
rfemur -4.82811 10.0061 21.2502
rtibia 18.393
rfoot -13.5407 -20.7764
rtoes 2.39503
lfemur -5.3428 -16.2367 -13.7814
ltibia 12.9016
lfoot -8.44353 17.1475
ltoes -11.5264
1922
root -0.504134 16.1501 -0.342621 2.54567 7.0652 -0.985313
lowerback 4.17662 -1.71979 0.318295
upperback -9.24272 -2.22215 0.632371
thorax -12.287 -1.05521 0.833251
lowerneck -1.66459 -11.3132 -16.7572
upperneck 13.5992 -15.5328 8.27603
head 6.3743 -7.9941 4.09873
rclavicle -2.01269e-014 -2.78299e-015
rhumerus 67.6688 -36.8927 -33.8229
rradius 90.8774
rwrist -50.9843
rhand -14.5468 1.16206
rfingers 7.12502
rthumb 11.6018 -28.4968
lclavicle -2.01269e-014 -2.78299e-015
lhumerus 64.899 29.7559 33.5021
lradius 94.5174
lwrist 72.169
lhand -7.02312 16.0157
lfingers 7.12502
lthumb 18.8486 45.1225
rfemur -4.71308 10.1074 21.3344
rtibia 18.1645
rfoot -13.4235 -20.6408
rtoes 2.60233
lfemur -5.13531 -16.0939 -13.6766
ltibia 12.5913
lfoot -8.26337 17.1454
ltoes -10.8974
1923
root -0.503777 16.1521 -0.369134 2.39323 6.88754 -1.0918
lowerback 4.73611 -1.65397 0.363542
upperback -9.10635 -2.1257 0.639339
thorax -12.4778 -1.01055 0.817897
lowerneck -1.63563 -11.2843 -16.8583
upperneck 13.54 -15.4989 8.36762
head 6.36173 -7.97698 4.14863
rclavicle -3.81045e-014 -1.68967e-014
rhumerus 66.4755 -37.3578 -34.0974
rradius 92.7893
rwrist -50.8819
rhand -14.6735 1.71942
rfingers 7.12502
rthumb 11.4796 -27.9463
lclavicle -3.81045e-014 -1.68967e-014
lhumerus 63.8674 30.1508 33.758
lradius 95.8637
lwrist 72.3667
lhand -6.78097 15.9408
lfingers 7.12502
lthumb 19.0815 45.0247
rfemur -4.54853 10.1717 21.429
rtibia 17.9018
rfoot -13.2493 -20.5105
rtoes 2.64783
lfemur -4.92504 -15.9446 -13.5882
ltibia 12.3702
lfoot -8.12903 17.1416
ltoes -10.666
1924
root -0.502215 16.1547 -0.394063 2.24658 6.68743 -1.12896
lowerback 5.26648 -1.63317 0.353056
upperback -8.95029 -2.10065 0.60835
thorax -12.6267 -0.997735 0.800964
lowerneck -1.41163 -11.2335 -16.8727
upperneck 13.2805 -15.4674 8.50279
head 6.24877 -7.95797 4.21542
rclavicle -2.96935e-015 2.73329e-015
rhumerus 65.2568 -37.762 -34.505
rradius 94.7703
rwrist -50.804
rhand -14.7841 2.02369
rfingers 7.12502
rthumb 11.373 -27.6479
lclavicle -2.96935e-015 2.73329e-015
lhumerus 62.6737 30.6414 33.7901
lradius 97.3017
lwrist 72.5177
lhand -6.54645 15.8924
lfingers 7.12502
lthumb 19.307 44.954
rfemur -4.38458 10.2852 21.4489
rtibia 17.6612
rfoot -13.1641 -20.4542
rtoes 2.97567
lfemur -4.68983 -15.9059 -13.5897
ltibia 12.1654
lfoot -8.07296 17.2343
ltoes -10.4316
1925
root -0.50008 16.1572 -0.420991 2.10796 6.53206 -1.208
lowerback 5.72415 -1.63758 0.373139
upperback -8.71612 -2.10572 0.586237
thorax -12.6401 -1.00286 0.776557
lowerneck -1.39754 -11.2108 -16.7663
upperneck 12.9657 -15.4338 8.58584
head 6.13949 -7.92765 4.23719
rclavicle 1.55984e-014 5.44173e-015
rhumerus 64.0806 -38.2219 -34.9642
rradius 96.7439
rwrist -50.6266
rhand -14.84 2.10681
rfingers 7.12502
rthumb 11.3191 -27.5677
lclavicle 1.55984e-014 5.44173e-015
lhumerus 61.4656 31.2233 33.8226
lradius 98.6964
lwrist 72.5803
lhand -6.26569 15.5858
lfingers 7.12502
lthumb 19.5769 44.6201
rfemur -4.26783 10.3448 21.5126
rtibia 17.485
rfoot -13.0609 -20.4072
rtoes 3.19977
lfemur -4.45354 -15.8331 -13.5378
ltibia 11.8956
lfoot -7.93655 17.2729
ltoes -10.1886
